<?xml version="1.0" encoding="UTF-8"?>
<!-- Generated by Pixelmator Pro 3.7.1 -->
<svg width="9998" height="1390" viewBox="0 0 9998 1390" xmlns="http://www.w3.org/2000/svg">
    <path id="MicroPythonOS-logo-white-alpha--long" fill="none" stroke="none" d="M -600.344971 -697 L 10599.655273 -697 L 10599.655273 1803 L -600.344971 1803 Z"/>
    <g id="Group">
        <path id="Path" fill="#000000" fill-rule="evenodd" stroke="#000000" stroke-width="11.671714" d="M 9269.519531 553 C 9269.519531 819.197021 9053.402344 1035.31604 8787.204102 1035.31604 C 8521.006836 1035.31604 8304.887695 819.197998 8304.887695 553 C 8304.887695 286.802979 8521.005859 70.684082 8787.204102 70.684082 C 8827.24707 70.684082 8866.157227 75.573975 8903.368164 84.790039 C 8941.319336 66.263916 8996.681641 65.297974 9051.499023 85.999023 C 9130.342773 115.773926 9172.084961 213.254028 9169.667969 233.973999 C 9167.250977 254.69397 9068.267578 180.317993 9036.99707 210.321045 C 9014.695313 231.718018 9038.646484 289.802979 9028.256836 302.991943 C 9020.705078 312.580078 8992.681641 296.26001 8974.665039 289.456055 C 8925.073242 270.728027 8886.868164 238.396973 8868.016602 203.536011 C 8842.041016 197.543945 8814.989258 194.376953 8787.204102 194.376953 C 8589.275391 194.376953 8428.582031 355.069946 8428.582031 552.999023 C 8428.582031 750.927979 8589.275391 911.620972 8787.204102 911.620972 C 8985.132813 911.620972 9145.826172 750.927979 9145.826172 552.999023 C 9145.826172 475.490967 9121.391602 318.004028 9142.006836 318.004028 C 9150.228516 318.004028 9269.581055 389.822021 9269.518555 552.999023 Z M 9025.746094 125.312012 C 9015.705078 134.946045 9015.422852 150.915039 9025.116211 160.950928 C 9034.808594 170.987061 9050.831055 171.313965 9060.87207 161.679932 C 9070.913086 152.046021 9071.195313 136.077026 9061.501953 126.041016 C 9051.808594 116.005005 9035.787109 115.677979 9025.746094 125.312012 Z"/>
        <path id="path1" fill="#000000" stroke="#000000" stroke-width="11.671714" d="M 9677.489258 1035.31604 C 9615.254883 1035.31604 9559.55957 1024.266968 9510.40332 1002.168945 C 9461.24707 980.071045 9422.689453 949.405029 9394.727539 910.170044 C 9366.767578 870.935059 9352.336914 825.613037 9351.43457 774.202026 L 9482.667969 774.202026 C 9487.177734 818.396973 9505.442383 855.603027 9537.460938 885.817993 C 9569.480469 916.032959 9616.15625 931.140991 9677.488281 931.140991 C 9736.115234 931.140991 9782.338867 916.484009 9816.162109 887.171021 C 9849.985352 857.858032 9866.896484 820.20105 9866.896484 774.202026 C 9866.896484 738.124023 9856.974609 708.811035 9837.131836 686.261963 C 9817.289063 663.713013 9792.486328 646.57605 9762.720703 634.850952 C 9732.957031 623.125977 9692.820313 610.498047 9642.310547 596.968994 C 9580.077148 580.734009 9530.244141 564.499023 9492.813477 548.264038 C 9455.381836 532.029053 9423.363281 506.54895 9396.755859 471.823975 C 9370.149414 437.098999 9356.844727 390.422974 9356.844727 331.796997 C 9356.844727 280.385986 9369.922852 234.838013 9396.080078 195.151978 C 9422.236328 155.466064 9458.991211 124.800049 9506.342773 103.153076 C 9553.695313 81.505981 9608.037109 70.682983 9669.370117 70.682983 C 9757.760742 70.682983 9830.141602 92.781006 9886.513672 136.976074 C 9942.885742 181.171021 9974.678711 239.797974 9981.894531 312.855957 L 9846.602539 312.855957 C 9842.092773 276.778076 9823.152344 244.984985 9789.780273 217.474976 C 9756.408203 189.966064 9712.212891 176.210938 9657.194336 176.210938 C 9605.783203 176.210938 9563.842773 189.515015 9531.37207 216.12207 C 9498.902344 242.729004 9482.666992 279.935059 9482.666992 327.738037 C 9482.666992 362.011963 9492.363281 389.972046 9511.754883 411.619019 C 9531.147461 433.265991 9555.047852 449.725952 9583.459961 461.000977 C 9611.871094 472.275024 9651.782227 485.128052 9703.193359 499.55896 C 9765.426758 516.696045 9815.485352 533.607056 9853.367188 550.292969 C 9891.249023 566.979004 9923.71875 592.68396 9950.777344 627.409058 C 9977.834961 662.134033 9991.365234 709.260986 9991.365234 768.78894 C 9991.365234 814.787964 9979.189453 858.082031 9954.835938 898.668945 C 9930.483398 939.256958 9894.40625 972.177979 9846.601563 997.432007 C 9798.798828 1022.686035 9742.426758 1035.313965 9677.487305 1035.313965 Z"/>
        <path id="path2" fill="#000000" stroke="#000000" stroke-width="11.671714" d="M 963.714966 70.684082 L 963.714966 1035.31604 L 840.598999 1035.31604 L 840.598999 316.023926 L 529.427979 1035.31604 L 442.840942 1035.31604 L 130.317017 314.630005 L 130.317017 1035.31604 L 7.200989 1035.31604 L 7.200989 70.684082 L 139.786987 70.684082 L 486.134033 868.037964 L 832.480957 70.684082 L 963.713989 70.684082 Z"/>
        <path id="path3" fill="#000000" stroke="#000000" stroke-width="11.671714" d="M 4319.068848 353.015015 C 4319.068848 433.286011 4292.23584 499.947021 4238.569824 553 C 4184.903809 606.052002 4103.053223 632.578979 3993.015137 632.578979 L 3811.724121 632.578979 L 3811.724121 1035.31604 L 3688.60791 1035.31604 L 3688.60791 70.684082 L 3993.015137 70.684082 C 4099.444824 70.684082 4180.394043 96.97998 4235.86377 149.571045 C 4291.333984 202.161987 4319.068848 269.977051 4319.068848 353.015991 Z M 3993.015137 528.780029 C 4061.562988 528.780029 4112.071777 513.55603 4144.541992 483.109009 C 4177.012207 452.661987 4193.24707 409.296997 4193.24707 353.015015 C 4193.24707 233.99292 4126.50293 174.481934 3993.015137 174.481934 L 3811.724121 174.481934 L 3811.724121 528.780029 L 3993.015137 528.780029 Z"/>
        <path id="path4" fill="#000000" stroke="#000000" stroke-width="11.671714" d="M 1233.610962 173.853027 C 1210.198975 173.853027 1190.390015 165.749023 1174.18103 149.541016 C 1157.973022 133.333008 1149.869019 113.522949 1149.869019 90.111084 C 1149.869019 66.698975 1157.973022 46.890015 1174.18103 30.68103 C 1190.389038 14.473022 1210.198975 6.369019 1233.610962 6.369019 C 1256.121948 6.369019 1275.256958 14.473022 1291.015015 30.68103 C 1306.772949 46.888916 1314.651978 66.698975 1314.651978 90.111084 C 1314.651978 113.522949 1306.772949 133.332031 1291.015015 149.541016 C 1275.256958 165.749023 1256.123047 173.853027 1233.610962 173.853027 Z M 1293.041016 294.062988 L 1293.041016 1034.230957 L 1170.130005 1034.230957 L 1170.130005 294.062988 L 1293.041016 294.062988 Z"/>
        <path id="path5" fill="#000000" stroke="#000000" stroke-width="11.671714" d="M 1456.471924 662.796997 C 1456.471924 586.259033 1471.780029 519.401001 1502.39502 462.222046 C 1533.01001 405.043945 1575.555908 360.697021 1630.032959 329.18103 C 1684.51001 297.665039 1746.865967 281.906982 1817.101074 281.906982 C 1908.045898 281.906982 1983.009033 303.968018 2041.988037 348.089966 C 2100.967041 392.212036 2139.912109 453.442017 2158.821045 531.781006 L 2026.455078 531.781006 C 2013.849121 486.759033 1989.312012 451.19104 1952.843018 425.078003 C 1916.375 398.964966 1871.126953 385.909058 1817.100098 385.909058 C 1746.86499 385.909058 1690.136963 409.995972 1646.915039 458.170044 C 1603.694092 506.343994 1582.083008 574.552979 1582.083008 662.796997 C 1582.083008 751.94104 1603.694092 820.82605 1646.915039 869.449951 C 1690.135986 918.073975 1746.86499 942.385986 1817.100098 942.385986 C 1871.126953 942.385986 1916.148926 929.780029 1952.166992 904.567017 C 1988.185059 879.354004 2012.947021 843.337036 2026.454102 796.512939 L 2158.820068 796.512939 C 2139.01001 872.151001 2099.389893 932.706055 2039.960938 978.177979 C 1980.531006 1023.651001 1906.243896 1046.386963 1817.100098 1046.386963 C 1746.86499 1046.386963 1684.509033 1030.629028 1630.031982 999.113037 C 1575.554932 967.597046 1533.009033 923.025024 1502.394043 865.395996 C 1471.779053 807.766968 1456.470947 740.234009 1456.470947 662.795044 Z"/>
        <path id="path6" fill="#000000" stroke="#000000" stroke-width="11.671714" d="M 2445.164063 414.272949 C 2466.774902 371.952026 2497.61499 339.08606 2537.685059 315.674072 C 2577.754883 292.261963 2626.604004 280.557007 2684.23291 280.557007 L 2684.23291 407.52002 L 2651.816895 407.52002 C 2514.048096 407.52002 2445.164063 482.256958 2445.164063 631.732056 L 2445.164063 1034.232056 L 2322.25293 1034.232056 L 2322.25293 294.063965 L 2445.164063 294.063965 L 2445.164063 414.274048 Z"/>
        <path id="path7" fill="#000000" stroke="#000000" stroke-width="11.671714" d="M 3148.864014 1046.386963 C 3079.530029 1046.386963 3016.7229 1030.629028 2960.445068 999.113037 C 2904.166992 967.597046 2860.044922 922.800049 2828.079102 864.720947 C 2796.113037 806.641968 2780.129883 739.333984 2780.129883 662.796021 C 2780.129883 587.157959 2796.562988 520.300049 2829.429932 462.220947 C 2862.295898 404.141968 2907.093994 359.569946 2963.822021 328.504028 C 3020.550049 297.438965 3084.031982 281.906006 3154.26709 281.906006 C 3224.501953 281.906006 3287.983887 297.438965 3344.711914 328.504028 C 3401.439941 359.56897 3446.237061 403.916992 3479.104004 461.545044 C 3511.970215 519.17395 3528.403809 586.256958 3528.403809 662.795044 C 3528.403809 739.333008 3511.520996 806.641968 3477.753906 864.719971 C 3443.987061 922.79895 3398.289063 967.595947 3340.660889 999.112061 C 3283.031982 1030.628052 3219.101074 1046.385986 3148.865967 1046.385986 Z M 3148.864014 938.333008 C 3192.986084 938.333008 3234.406982 927.978027 3273.125977 907.267944 C 3311.844971 886.557983 3343.135986 855.491943 3366.998047 814.072021 C 3390.860107 772.651001 3402.791016 722.225952 3402.791016 662.796997 C 3402.791016 603.366943 3391.084961 552.942017 3367.674072 511.521973 C 3344.261963 470.100952 3313.646973 439.260986 3275.827881 419.000977 C 3238.009033 398.740967 3197.039063 388.610962 3152.916992 388.610962 C 3107.89502 388.610962 3066.698975 398.740967 3029.331055 419.000977 C 2991.961914 439.260986 2962.022949 470.100952 2939.510986 511.521973 C 2917 552.942993 2905.743896 603.368042 2905.743896 662.796997 C 2905.743896 723.126953 2916.773926 774.001953 2938.834961 815.422974 C 2960.895996 856.843994 2990.385986 887.68396 3027.303955 907.94397 C 3064.221924 928.203979 3104.74292 938.333984 3148.864014 938.333984 Z"/>
        <path id="path8" fill="#000000" stroke="#000000" stroke-width="11.671714" d="M 5110.039063 294.062988 L 4664.316895 1382.704102 L 4537.354004 1382.704102 L 4683.227051 1026.126953 L 4384.729004 294.062988 L 4521.146973 294.062988 L 4753.462891 893.760986 L 4983.077148 294.062988 L 5110.040039 294.062988 Z"/>
        <path id="path9" fill="#000000" stroke="#000000" stroke-width="11.671714" d="M 5382.875 395.364014 L 5382.875 831.630981 C 5382.875 867.649048 5390.528809 893.087036 5405.835938 907.94397 C 5421.144043 922.801025 5447.707031 930.22998 5485.525879 930.22998 L 5576.020996 930.22998 L 5576.020996 1034.232056 L 5465.266113 1034.232056 C 5396.832031 1034.232056 5345.505859 1018.473999 5311.289063 986.958008 C 5277.071777 955.442017 5259.962891 903.666992 5259.962891 831.630981 L 5259.962891 395.364014 L 5164.064941 395.364014 L 5164.064941 294.063965 L 5259.962891 294.063965 L 5259.962891 107.671021 L 5382.874023 107.671021 L 5382.874023 294.063965 L 5576.02002 294.063965 L 5576.02002 395.364014 L 5382.874023 395.364014 Z"/>
        <path id="path10" fill="#000000" stroke="#000000" stroke-width="11.671714" d="M 6091.977051 280.557007 C 6147.805176 280.557007 6198.22998 292.488037 6243.251953 316.349976 C 6288.273926 340.212036 6323.617188 376.005005 6349.279785 423.728027 C 6374.942871 471.452026 6387.773926 529.531006 6387.773926 597.964966 L 6387.773926 1034.232056 L 6266.213867 1034.232056 L 6266.213867 615.524048 C 6266.213867 541.687012 6247.754883 485.18396 6210.835938 446.015015 C 6173.917969 406.845947 6123.493164 387.260986 6059.561035 387.260986 C 5994.729004 387.260986 5943.178223 407.520996 5904.90918 448.041016 C 5866.640137 488.561035 5847.504883 547.540039 5847.504883 624.979004 L 5847.504883 1034.233032 L 5724.594238 1034.233032 L 5724.594238 34.736084 L 5847.504883 34.736084 L 5847.504883 399.416992 C 5871.816895 361.598022 5905.358887 332.333984 5948.129883 311.623047 C 5990.900879 290.913086 6038.850098 280.557983 6091.977051 280.557983 Z"/>
        <path id="path11" fill="#000000" stroke="#000000" stroke-width="11.671714" d="M 6911.834961 1046.386963 C 6842.500977 1046.386963 6779.693848 1030.629028 6723.416016 999.113037 C 6667.138184 967.597046 6623.016113 922.800049 6591.049805 864.720947 C 6559.083984 806.641968 6543.101074 739.333984 6543.101074 662.796021 C 6543.101074 587.157959 6559.53418 520.300049 6592.400879 462.220947 C 6625.26709 404.141968 6670.064941 359.569946 6726.792969 328.504028 C 6783.520996 297.438965 6847.00293 281.906006 6917.237793 281.906006 C 6987.473145 281.906006 7050.955078 297.438965 7107.683105 328.504028 C 7164.411133 359.56897 7209.208008 403.916992 7242.075195 461.545044 C 7274.940918 519.17395 7291.375 586.256958 7291.375 662.795044 C 7291.375 739.333008 7274.492188 806.641968 7240.725098 864.719971 C 7206.958008 922.79895 7161.259766 967.595947 7103.631836 999.112061 C 7046.00293 1030.628052 6982.071777 1046.385986 6911.836914 1046.385986 Z M 6911.834961 938.333008 C 6955.957031 938.333008 6997.37793 927.978027 7036.097168 907.267944 C 7074.815918 886.557983 7106.106934 855.491943 7129.969238 814.072021 C 7153.831055 772.651001 7165.762207 722.225952 7165.762207 662.796997 C 7165.762207 603.366943 7154.056152 552.942017 7130.64502 511.521973 C 7107.23291 470.100952 7076.618164 439.260986 7038.798828 419.000977 C 7000.97998 398.740967 6960.009766 388.610962 6915.888184 388.610962 C 6870.866211 388.610962 6829.669922 398.740967 6792.301758 419.000977 C 6754.933105 439.260986 6724.994141 470.100952 6702.481934 511.521973 C 6679.971191 552.942993 6668.714844 603.368042 6668.714844 662.796997 C 6668.714844 723.126953 6679.745117 774.001953 6701.806152 815.422974 C 6723.867188 856.843994 6753.356934 887.68396 6790.274902 907.94397 C 6827.192871 928.203979 6867.713867 938.333984 6911.834961 938.333984 Z"/>
        <path id="path12" fill="#000000" stroke="#000000" stroke-width="11.671714" d="M 7814.083984 280.557007 C 7904.128906 280.557007 7977.06543 307.796021 8032.892578 362.272949 C 8088.720703 416.75 8116.634766 495.313965 8116.634766 597.964966 L 8116.634766 1034.232056 L 7995.075195 1034.232056 L 7995.075195 615.524048 C 7995.075195 541.687012 7976.616211 485.18396 7939.697266 446.015015 C 7902.779297 406.845947 7852.353516 387.260986 7788.421875 387.260986 C 7723.589844 387.260986 7672.039063 407.520996 7633.769531 448.041016 C 7595.500977 488.561035 7576.366211 547.540039 7576.366211 624.979004 L 7576.366211 1034.233032 L 7453.455078 1034.233032 L 7453.455078 294.064941 L 7576.366211 294.064941 L 7576.366211 399.416992 C 7600.677734 361.598022 7633.769531 332.333984 7675.639648 311.623047 C 7717.510742 290.913086 7763.65918 280.557983 7814.083984 280.557983 Z"/>
    </g>
</svg>
