<?xml version="1.0" encoding="UTF-8" standalone="no"?>
<!DOCTYPE svg PUBLIC "-//W3C//DTD SVG 1.1//EN" "http://www.w3.org/Graphics/SVG/1.1/DTD/svg11.dtd">
<svg width="100%" height="100%" viewBox="0 0 575 575" version="1.1" xmlns="http://www.w3.org/2000/svg" xmlns:xlink="http://www.w3.org/1999/xlink" xml:space="preserve" xmlns:serif="http://www.serif.com/" style="fill-rule:evenodd;clip-rule:evenodd;stroke-linejoin:round;stroke-miterlimit:2;">
    <g transform="matrix(1,0,0,1,-35388,-4316)">
        <g id="Artboard6" transform="matrix(1,0,0,1,-0.667459,-3.63798e-12)">
            <rect x="35388.7" y="4316" width="575" height="575" style="fill:none;"/>
            <clipPath id="_clip1">
                <rect x="35388.7" y="4316" width="575" height="575"/>
            </clipPath>
            <g clip-path="url(#_clip1)">
                <g transform="matrix(1,0,0,1,0.667459,3.63798e-12)">
                    <g transform="matrix(1,0,0,1,-0.136865,-10)">
                        <circle cx="35676.3" cy="4613.5" r="287.5" style="fill:rgb(0,124,238);"/>
                        <g transform="matrix(1.63693,0,0,1.63693,-22816.2,-2895.11)">
                            <circle cx="35733" cy="4587" r="116" style="fill:white;"/>
                        </g>
                        <g transform="matrix(-0.935173,-0.867335,0.867335,-0.935173,62004.1,35383.6)">
                            <path d="M31736.2,3672.84C31737.1,3665.48 31737.5,3660.13 31737.5,3656.78C31737.6,3653.44 31737.5,3651.49 31737.3,3650.94C31737.1,3650.39 31736.8,3650.11 31736.2,3650.11C31735.6,3650.1 31735.2,3650.41 31734.8,3651.03C31734.5,3651.66 31734,3653.63 31733.2,3656.94C31732.5,3660.25 31731.7,3662.96 31731,3665.07C31730.3,3667.18 31729.2,3669.08 31728,3670.77C31726.7,3672.45 31725.1,3673.56 31723.2,3674.09C31721.4,3674.62 31718.9,3674.88 31715.7,3674.85C31709.2,3674.78 31704.6,3673.01 31701.9,3669.54C31699.2,3666.06 31697.8,3660.85 31697.9,3653.9C31697.9,3650.55 31698.2,3647.04 31698.7,3643.36C31699.2,3639.68 31699.7,3636.85 31700.2,3634.87L31700.9,3631.82L31714.8,3632.73C31713.6,3640.72 31712.9,3647.27 31712.9,3652.39C31712.9,3655.11 31713.4,3656.48 31714.6,3656.49C31715.2,3656.49 31715.5,3656.18 31715.8,3655.56C31716,3654.93 31716.4,3653.24 31716.8,3650.47C31718,3643.16 31719.9,3638.2 31722.3,3635.59C31724.8,3632.97 31728.8,3631.69 31734.3,3631.74C31741.4,3631.81 31746.2,3633.55 31748.8,3636.98C31751.4,3640.4 31752.6,3645.64 31752.5,3652.69C31752.5,3657.66 31751.9,3663.48 31750.9,3670.16L31750.3,3673.45L31736.2,3672.84Z" style="fill:rgb(255,168,0);fill-rule:nonzero;"/>
                            <path d="M31699,3677.4L31745.2,3704.92L31736.5,3731.05L31683,3725.78L31688.7,3708.36L31694.9,3708.85L31698.7,3697.46L31693.4,3694.37L31699,3677.4ZM31727.6,3712.64L31711.1,3704.05L31708.7,3711.42L31727,3714.5L31727.6,3712.64Z" style="fill:rgb(255,168,0);fill-rule:nonzero;"/>
                            <path d="M31714.2,3745L31726.5,3753.26L31704.7,3785.81L31692.4,3777.55L31698.1,3769.09L31666.8,3748.07L31676.9,3732.96L31708.2,3753.99L31714.2,3745Z" style="fill:rgb(255,168,0);fill-rule:nonzero;"/>
                            <path d="M31661.3,3791.86C31658.5,3788.4 31656.2,3786.18 31654.3,3785.2C31652.4,3784.22 31650.4,3784.59 31648.2,3786.32C31646.1,3788.04 31645.3,3789.92 31645.9,3791.95C31646.4,3793.98 31648.1,3796.75 31651,3800.27C31653.8,3803.78 31656.2,3806.03 31658,3807.01C31659.8,3807.98 31661.8,3807.6 31664,3805.86C31666.1,3804.11 31666.9,3802.21 31666.4,3800.14C31665.8,3798.08 31664.1,3795.32 31661.3,3791.86ZM31636.7,3811.77C31630.7,3804.33 31627.9,3797.68 31628.2,3791.83C31628.6,3785.98 31632.2,3780.32 31639,3774.85C31645.7,3769.38 31652,3767.08 31657.9,3767.94C31663.7,3768.8 31669.6,3772.94 31675.6,3780.36C31681.6,3787.78 31684.4,3794.41 31684,3800.27C31683.7,3806.12 31680.1,3811.78 31673.3,3817.27C31666.5,3822.76 31660.2,3825.07 31654.4,3824.21C31648.6,3823.36 31642.7,3819.21 31636.7,3811.77Z" style="fill:rgb(255,168,0);fill-rule:nonzero;"/>
                            <path d="M31589.8,3842.89C31597,3841.06 31602.1,3839.56 31605.3,3838.39C31608.4,3837.23 31610.2,3836.46 31610.7,3836.1C31611.1,3835.74 31611.2,3835.29 31611,3834.75C31610.8,3834.21 31610.4,3833.9 31609.7,3833.83C31609,3833.75 31607,3833.95 31603.6,3834.42C31600.2,3834.89 31597.4,3835.16 31595.2,3835.24C31593,3835.32 31590.8,3835.05 31588.8,3834.44C31586.8,3833.83 31585.2,3832.75 31584,3831.21C31582.8,3829.66 31581.7,3827.41 31580.6,3824.47C31578.4,3818.4 31578.4,3813.46 31580.6,3809.66C31582.9,3805.87 31587.3,3802.76 31593.8,3800.33C31596.9,3799.17 31600.3,3798.16 31603.9,3797.32C31607.6,3796.48 31610.4,3795.93 31612.4,3795.68L31615.5,3795.28L31619.6,3808.56C31611.7,3810.26 31605.4,3812.01 31600.6,3813.8C31598,3814.74 31597,3815.78 31597.4,3816.91C31597.6,3817.4 31598,3817.64 31598.7,3817.64C31599.3,3817.65 31601,3817.36 31603.8,3816.79C31611,3815.32 31616.3,3815.26 31619.6,3816.62C31623,3817.98 31625.6,3821.25 31627.5,3826.45C31630,3833.06 31630.1,3838.18 31627.8,3841.82C31625.5,3845.45 31621.1,3848.5 31614.5,3850.95C31609.8,3852.68 31604.2,3854.25 31597.6,3855.65L31594.3,3856.28L31589.8,3842.89Z" style="fill:rgb(255,168,0);fill-rule:nonzero;"/>
                            <path d="M31540.5,3811.08L31541.2,3829.41L31551.5,3829.02L31550.8,3810.69L31569,3810L31571,3862.49L31552.8,3863.18L31552.1,3843.83L31541.8,3844.22L31542.5,3863.57L31524.4,3864.26L31522.4,3811.77L31540.5,3811.08Z" style="fill:rgb(255,168,0);fill-rule:nonzero;"/>
                            <path d="M31515.2,3809.42L31504.3,3860.8L31486.5,3857.03L31497.4,3805.64L31515.2,3809.42Z" style="fill:rgb(255,168,0);fill-rule:nonzero;"/>
                        </g>
                        <g transform="matrix(1.23142,-1.093,1.093,1.23142,-7153.15,34589.6)">
                            <path d="M31405.3,3617.08C31407.1,3613.23 31408.3,3610.4 31408.9,3608.59C31409.6,3606.78 31409.9,3605.7 31409.9,3605.37C31409.9,3605.04 31409.7,3604.82 31409.4,3604.72C31409.1,3604.61 31408.8,3604.7 31408.5,3604.98C31408.2,3605.26 31407.6,3606.23 31406.6,3607.89C31405.5,3609.55 31404.7,3610.89 31403.9,3611.91C31403.1,3612.92 31402.2,3613.77 31401.2,3614.45C31400.2,3615.13 31399.1,3615.45 31398,3615.4C31396.9,3615.35 31395.5,3615.03 31393.8,3614.45C31390.3,3613.24 31388.1,3611.44 31387.2,3609.05C31386.4,3606.66 31386.6,3603.59 31387.9,3599.82C31388.5,3598.01 31389.3,3596.15 31390.3,3594.24C31391.2,3592.33 31392,3590.88 31392.6,3589.89L31393.6,3588.37L31400.9,3591.38C31398.8,3595.5 31397.3,3598.95 31396.3,3601.72C31395.8,3603.2 31395.9,3604.05 31396.5,3604.27C31396.8,3604.37 31397.1,3604.27 31397.3,3603.97C31397.6,3603.68 31398.1,3602.82 31398.8,3601.39C31400.8,3597.64 31402.7,3595.28 31404.5,3594.3C31406.3,3593.33 31408.7,3593.36 31411.7,3594.39C31415.6,3595.71 31417.9,3597.53 31418.6,3599.86C31419.4,3602.19 31419.2,3605.27 31417.8,3609.09C31416.9,3611.78 31415.6,3614.85 31413.8,3618.29L31412.9,3619.97L31405.3,3617.08Z" style="fill:rgb(255,168,0);fill-rule:nonzero;"/>
                            <path d="M31411.1,3635.56L31391.4,3633.58C31390.6,3633.49 31389.9,3633.64 31389.5,3634.04C31389.1,3634.43 31388.9,3635.14 31388.8,3636.15C31388.7,3637.17 31388.8,3637.9 31389.1,3638.35C31389.4,3638.81 31390,3639.08 31390.9,3639.16L31410.5,3641.14L31409.4,3651.52L31390.4,3649.6C31386.2,3649.17 31383.3,3647.81 31381.8,3645.52C31380.3,3643.23 31379.8,3639.82 31380.2,3635.27C31380.7,3630.72 31381.9,3627.47 31383.7,3625.53C31385.6,3623.58 31388.7,3622.82 31392.9,3623.24L31412.1,3625.18L31411.1,3635.56Z" style="fill:rgb(255,168,0);fill-rule:nonzero;"/>
                            <path d="M31379.3,3660.63L31408.9,3655.61L31411.5,3670.9L31400.6,3675.12L31412.2,3675.11L31414.9,3690.84L31385.2,3695.86L31383.5,3685.58L31398.8,3682.99L31398.7,3682.51L31383.3,3682.47L31381.8,3673.87L31396.4,3668.81L31396.3,3668.33L31381,3670.91L31379.3,3660.63Z" style="fill:rgb(255,168,0);fill-rule:nonzero;"/>
                            <path d="M31389.1,3707.56L31415.9,3693.94L31422.9,3707.77L31413.7,3715.06L31424.9,3711.58L31432.1,3725.81L31405.2,3739.43L31400.5,3730.13L31414.4,3723.11L31414.1,3722.67L31399.4,3727.22L31395.5,3719.45L31407.8,3710.29L31407.6,3709.85L31393.8,3716.86L31389.1,3707.56Z" style="fill:rgb(255,168,0);fill-rule:nonzero;"/>
                            <path d="M31412.8,3749.05L31435.3,3729.03L31450.3,3745.88L31444.1,3751.41L31436,3742.35L31434.1,3744.05L31440.4,3751.1L31434.3,3756.57L31428,3749.52L31426,3751.31L31434,3760.37L31427.8,3765.9L31412.8,3749.05Z" style="fill:rgb(255,168,0);fill-rule:nonzero;"/>
                            <path d="M31451.5,3775.05L31449.4,3773.56L31444.8,3779.88L31436.4,3773.81L31453.9,3749.32L31464.2,3756.7C31468,3759.41 31470.2,3761.97 31471,3764.39C31471.7,3766.82 31470.9,3769.73 31468.4,3773.12C31466,3776.52 31463.3,3778.31 31460.5,3778.48L31456.9,3788.54L31448.3,3782.36L31451.5,3775.05ZM31456.2,3768.33C31457.4,3769.19 31458.6,3768.82 31459.7,3767.22C31460.9,3765.63 31460.8,3764.35 31459.4,3763.39L31457.6,3762.06L31454.1,3766.84L31456.2,3768.33Z" style="fill:rgb(255,168,0);fill-rule:nonzero;"/>
                            <path d="M31505.9,3807.26C31502.6,3807.12 31499.4,3806.58 31496.2,3805.66C31493,3804.73 31490.7,3803.56 31489.2,3802.15C31487.7,3800.74 31486.9,3798.86 31486.8,3796.51C31486.7,3794.16 31487.2,3790.98 31488.3,3786.99C31490,3781.26 31492,3777.6 31494.4,3776C31496.8,3774.4 31500.5,3774.32 31505.5,3775.77C31507.5,3776.37 31509.9,3777.37 31512.5,3778.77L31514,3779.51L31511.5,3787.16C31509.2,3786.18 31507,3785.41 31505,3784.83C31503,3784.24 31501.6,3784.25 31500.8,3784.85C31500,3785.44 31499.3,3786.93 31498.6,3789.32C31497.9,3791.71 31497.6,3793.4 31497.6,3794.4C31497.6,3795.4 31497.8,3796.14 31498.4,3796.62C31498.9,3797.1 31499.8,3797.53 31501.2,3797.93L31508,3799.62L31505.9,3807.26Z" style="fill:rgb(255,168,0);fill-rule:nonzero;"/>
                            <path d="M31515.4,3809.87L31523.8,3780.2L31539.6,3781.12L31544.6,3811.58L31534.1,3810.96L31533.5,3807.46L31526.6,3807.06L31525.7,3810.47L31515.4,3809.87ZM31530.7,3788.79L31528.4,3799.19L31532.8,3799.45L31531.8,3788.86L31530.7,3788.79Z" style="fill:rgb(255,168,0);fill-rule:nonzero;"/>
                            <path d="M31555.2,3811.24L31549,3781.78L31564.2,3778.56L31568.8,3789.33L31568.3,3777.68L31583.9,3774.37L31590.2,3803.82L31580,3805.99L31576.8,3790.82L31576.3,3790.92L31576.9,3806.32L31568.4,3808.13L31562.7,3793.8L31562.2,3793.91L31565.4,3809.07L31555.2,3811.24Z" style="fill:rgb(255,168,0);fill-rule:nonzero;"/>
                            <path d="M31609.1,3787.91L31607.8,3788.56L31610.8,3794.22L31601.5,3799.02L31587.7,3772.3L31598.1,3766.85C31602.4,3764.66 31605.8,3763.79 31608.5,3764.25C31611.2,3764.71 31613.6,3766.96 31615.7,3770.99C31617.8,3775.02 31618.2,3778.3 31617.1,3780.84C31616,3783.37 31613.3,3785.73 31609.1,3787.91ZM31604.1,3781.26L31604.9,3780.82C31606,3780.23 31606.7,3779.55 31607,3778.79C31607.2,3778.03 31607,3777.04 31606.3,3775.81C31605.7,3774.59 31605,3773.89 31604.4,3773.7C31603.7,3773.52 31602.7,3773.74 31601.5,3774.36L31600.7,3774.79L31604.1,3781.26Z" style="fill:rgb(255,168,0);fill-rule:nonzero;"/>
                        </g>
                        <g transform="matrix(1.25339,-1.00719,1.00719,1.25339,-7532.94,31803)">
                            <path d="M31478,3503.86L31489.3,3526.16L31481.7,3530L31472.3,3524.15L31471.8,3524.39L31476.1,3532.84L31468.4,3536.76L31457.1,3514.46L31464.7,3510.59L31474.3,3517.11L31474.8,3516.86L31470.2,3507.77L31478,3503.86Z" style="fill:white;fill-rule:nonzero;"/>
                            <path d="M31452.7,3517.15L31463.4,3540.39L31453,3548.33L31433.4,3531.84L31440.3,3526.56L31442.6,3528.41L31447.2,3524.95L31445.9,3522.31L31452.7,3517.15ZM31454.5,3538.7L31450.3,3530.89L31447.4,3533.12L31453.7,3539.26L31454.5,3538.7Z" style="fill:white;fill-rule:nonzero;"/>
                            <path d="M31429.8,3561.4C31432.4,3559.1 31434.3,3557.36 31435.4,3556.2C31436.5,3555.04 31437.1,3554.34 31437.2,3554.09C31437.3,3553.84 31437.3,3553.62 31437.1,3553.43C31436.9,3553.24 31436.6,3553.21 31436.3,3553.32C31436,3553.44 31435.2,3553.95 31433.9,3554.87C31432.5,3555.78 31431.4,3556.49 31430.5,3557C31429.5,3557.5 31428.6,3557.84 31427.6,3558.01C31426.6,3558.19 31425.6,3558.07 31424.8,3557.65C31424,3557.24 31423,3556.52 31422,3555.5C31419.7,3553.39 31418.7,3551.29 31418.8,3549.19C31419,3547.09 31420.2,3544.83 31422.5,3542.42C31423.5,3541.26 31424.8,3540.11 31426.1,3538.99C31427.5,3537.86 31428.6,3537.03 31429.4,3536.49L31430.6,3535.66L31435.2,3540.45C31432.2,3542.85 31429.9,3544.94 31428.2,3546.72C31427.3,3547.66 31427.1,3548.33 31427.5,3548.72C31427.7,3548.89 31427.9,3548.91 31428.2,3548.77C31428.5,3548.63 31429.1,3548.14 31430.2,3547.32C31433,3545.15 31435.2,3544 31436.9,3543.88C31438.6,3543.75 31440.4,3544.59 31442.4,3546.39C31444.8,3548.69 31445.9,3550.86 31445.7,3552.89C31445.5,3554.91 31444.3,3557.16 31442,3559.61C31440.4,3561.33 31438.3,3563.19 31435.8,3565.19L31434.5,3566.16L31429.8,3561.4Z" style="fill:white;fill-rule:nonzero;"/>
                            <path d="M31405,3565.68L31412.3,3570.5L31415,3566.43L31407.7,3561.61L31412.5,3554.39L31433.4,3568.18L31428.6,3575.4L31420.9,3570.32L31418.2,3574.39L31425.9,3579.48L31421.1,3586.7L31400.3,3572.9L31405,3565.68Z" style="fill:white;fill-rule:nonzero;"/>
                            <path d="M31661,3755.16L31649.2,3767.56L31644.6,3763.14L31644.5,3758.62C31644.5,3757.67 31644.5,3756.74 31644.5,3755.83C31644.5,3755.83 31644.5,3755.09 31644.4,3753.61C31644.4,3753.01 31644.3,3752.41 31644.2,3751.8C31644.1,3751.18 31643.9,3750.76 31643.8,3750.54C31643.6,3750.31 31643.5,3750.11 31643.3,3749.92C31642.8,3749.47 31642.4,3749.33 31642,3749.48C31641.6,3749.63 31641.1,3750.05 31640.4,3750.73C31639.2,3752.03 31638.2,3753.31 31637.3,3754.58L31636.9,3755.26L31632,3751.13C31633.1,3748.62 31634.7,3746.34 31636.6,3744.3C31638.6,3742.25 31640.5,3741.09 31642.6,3740.8C31644.6,3740.52 31646.5,3741.17 31648.1,3742.73C31649.8,3744.3 31650.8,3745.8 31651.2,3747.23C31651.6,3748.66 31651.7,3750.61 31651.3,3753.06L31650.8,3756.09L31656.1,3750.54L31661,3755.16Z" style="fill:white;fill-rule:nonzero;"/>
                            <path d="M31654.8,3743.5C31651.1,3740.92 31648.8,3738.45 31648,3736.1C31647.2,3733.75 31647.9,3731.1 31649.9,3728.14C31652,3725.18 31654.2,3723.68 31656.7,3723.65C31659.1,3723.61 31662.2,3724.89 31665.9,3727.49C31669.6,3730.09 31671.9,3732.54 31672.7,3734.86C31673.6,3737.18 31672.9,3739.83 31670.9,3742.81C31668.8,3745.79 31666.5,3747.29 31664,3747.32C31661.6,3747.35 31658.5,3746.08 31654.8,3743.5ZM31656.2,3731.79C31656,3731.84 31655.8,3731.98 31655.6,3732.21C31655.5,3732.43 31655.4,3732.64 31655.4,3732.83C31655.4,3733.03 31655.6,3733.29 31655.9,3733.61C31656.4,3734.18 31657.7,3735.16 31659.6,3736.54C31661.6,3737.93 31663,3738.76 31663.6,3739.03C31664.3,3739.31 31664.8,3739.23 31665.1,3738.8C31665.4,3738.37 31665.3,3737.89 31664.8,3737.35C31664.3,3736.81 31663.3,3736.01 31661.8,3734.94C31660.2,3733.88 31659.2,3733.15 31658.6,3732.77C31658,3732.39 31657.4,3732.12 31657,3731.96C31656.6,3731.8 31656.3,3731.74 31656.2,3731.79Z" style="fill:white;fill-rule:nonzero;"/>
                            <path d="M31686.5,3714.05L31679,3729.39L31673.2,3726.57L31671.8,3722.27C31671.5,3721.36 31671.3,3720.47 31671,3719.61C31671,3719.61 31670.7,3718.91 31670.2,3717.51C31670.1,3716.94 31669.8,3716.39 31669.5,3715.84C31669.2,3715.3 31668.9,3714.95 31668.7,3714.77C31668.5,3714.6 31668.3,3714.46 31668,3714.34C31667.4,3714.05 31667,3714.04 31666.7,3714.3C31666.3,3714.55 31666,3715.11 31665.6,3715.96C31664.8,3717.56 31664.2,3719.1 31663.8,3720.56L31663.5,3721.33L31657.7,3718.85C31658,3716.12 31658.8,3713.49 31660,3710.96C31661.2,3708.42 31662.8,3706.72 31664.6,3705.84C31666.5,3704.97 31668.5,3705.03 31670.5,3706.03C31672.5,3707.04 31674,3708.16 31674.8,3709.4C31675.6,3710.64 31676.2,3712.49 31676.6,3714.94L31677.1,3717.96L31680.5,3711.09L31686.5,3714.05Z" style="fill:white;fill-rule:nonzero;"/>
                            <path d="M31691.9,3698.63L31689.1,3697.74L31686.1,3707.39L31680.3,3705.6L31666.4,3697.76L31669.3,3688.43L31681.8,3697.36L31682.4,3695.62L31678.6,3693.65L31680.6,3686.23L31684.9,3687.57L31685.2,3686.68L31691.9,3688.76L31691.6,3689.65L31694.4,3690.54L31691.9,3698.63Z" style="fill:white;fill-rule:nonzero;"/>
                        </g>
                    </g>
                    <g transform="matrix(1,0,0,1,-0.136865,-10)">
                        <g transform="matrix(1.19436,0,0,1.19436,-1993.27,252.304)">
                            <circle cx="31539.5" cy="3651.5" r="159.5"/>
                            <clipPath id="_clip2">
                                <circle cx="31539.5" cy="3651.5" r="159.5"/>
                            </clipPath>
                            <g clip-path="url(#_clip2)">
                                <g transform="matrix(1.58292,0,0,1.58292,-24954.8,-3521.71)">
                                    <circle cx="35689" cy="4700" r="139" style="fill:rgb(92,192,255);"/>
                                    <clipPath id="_clip3">
                                        <circle cx="35689" cy="4700" r="139"/>
                                    </clipPath>
                                    <g clip-path="url(#_clip3)">
                                        <g transform="matrix(0.528942,0,0,0.528942,16819.5,2096.66)">
                                            <path d="M35592.8,4656.83C35567.2,4671.36 35554.9,4698.38 35592.8,4707C35630.7,4715.62 35670.2,4731.72 35687.2,4758C35704.1,4784.28 35762.8,4817.22 35775,4756C35787.2,4694.78 35781.1,4711.47 35818,4710C35854.9,4708.53 35876.9,4719.03 35872,4691C35865.2,4652.22 35620.8,4640.93 35592.8,4656.83Z" style="fill:rgb(22,223,141);"/>
                                        </g>
                                    </g>
                                </g>
                                <g transform="matrix(0.616828,0,0,0.616828,9565.65,839.252)">
                                    <path d="M35818.4,4539.28C35819,4537.68 35820.6,4536.63 35822.2,4536.63C35823.9,4536.63 35825.5,4537.68 35826.1,4539.28C35826.6,4540.7 35827.1,4542.18 35827.7,4543.64C35830.6,4551.61 35836.9,4557.89 35844.9,4560.83C35846.3,4561.37 35847.8,4561.92 35849.2,4562.45C35850.8,4563.04 35851.9,4564.55 35851.9,4566.25C35851.9,4567.95 35850.8,4569.46 35849.2,4570.05C35847.8,4570.58 35846.3,4571.13 35844.9,4571.67C35836.9,4574.61 35830.6,4580.9 35827.7,4588.86C35827.1,4590.32 35826.6,4591.8 35826.1,4593.23C35825.5,4594.82 35823.9,4595.87 35822.2,4595.87C35820.6,4595.87 35819,4594.82 35818.4,4593.23C35817.9,4591.8 35817.4,4590.32 35816.8,4588.86C35813.9,4580.9 35807.6,4574.61 35799.6,4571.67C35798.2,4571.13 35796.7,4570.58 35795.3,4570.05C35793.7,4569.46 35792.6,4567.95 35792.6,4566.25C35792.6,4564.55 35793.7,4563.04 35795.3,4562.45C35796.7,4561.92 35798.2,4561.37 35799.6,4560.83C35807.6,4557.89 35813.9,4551.61 35816.8,4543.64C35817.4,4542.18 35817.9,4540.7 35818.4,4539.28Z" style="fill:white;"/>
                                </g>
                                <g transform="matrix(0.616828,0,0,0.616828,9355.39,755.787)">
                                    <path d="M35818.4,4539.28C35819,4537.68 35820.6,4536.63 35822.2,4536.63C35823.9,4536.63 35825.5,4537.68 35826.1,4539.28C35826.6,4540.7 35827.1,4542.18 35827.7,4543.64C35830.6,4551.61 35836.9,4557.89 35844.9,4560.83C35846.3,4561.37 35847.8,4561.92 35849.2,4562.45C35850.8,4563.04 35851.9,4564.55 35851.9,4566.25C35851.9,4567.95 35850.8,4569.46 35849.2,4570.05C35847.8,4570.58 35846.3,4571.13 35844.9,4571.67C35836.9,4574.61 35830.6,4580.9 35827.7,4588.86C35827.1,4590.32 35826.6,4591.8 35826.1,4593.23C35825.5,4594.82 35823.9,4595.87 35822.2,4595.87C35820.6,4595.87 35819,4594.82 35818.4,4593.23C35817.9,4591.8 35817.4,4590.32 35816.8,4588.86C35813.9,4580.9 35807.6,4574.61 35799.6,4571.67C35798.2,4571.13 35796.7,4570.58 35795.3,4570.05C35793.7,4569.46 35792.6,4567.95 35792.6,4566.25C35792.6,4564.55 35793.7,4563.04 35795.3,4562.45C35796.7,4561.92 35798.2,4561.37 35799.6,4560.83C35807.6,4557.89 35813.9,4551.61 35816.8,4543.64C35817.4,4542.18 35817.9,4540.7 35818.4,4539.28Z" style="fill:white;"/>
                                </g>
                                <g transform="matrix(1.03702,-0.611534,0.611534,1.03702,-8299.48,20687.9)">
                                    <path d="M35641,4632.35C35644.1,4631.23 35647.5,4632.85 35648.6,4635.97C35649.8,4639.09 35648.1,4642.53 35645,4643.65C35632.7,4648.07 35623.9,4661.6 35617.3,4675.84C35606.7,4698.81 35602.4,4724.3 35602.4,4724.3C35601.8,4727.56 35598.7,4729.77 35595.5,4729.21C35592.2,4728.65 35590,4725.55 35590.6,4722.29C35590.6,4722.29 35595.2,4695.2 35606.4,4670.81C35614.4,4653.47 35626,4637.74 35641,4632.35Z" style="fill:rgb(62,62,62);"/>
                                </g>
                                <g transform="matrix(1.03702,-0.611534,0.611534,1.03702,-8235.48,20693.9)">
                                    <path d="M35641,4632.35C35644.1,4631.23 35647.5,4632.85 35648.6,4635.97C35649.8,4639.09 35648.1,4642.53 35645,4643.65C35639.3,4645.72 35634.4,4650.46 35630.1,4656.48C35625.2,4663.2 35621.2,4671.53 35617.9,4680.23C35607.5,4707.14 35603.6,4737.55 35603.6,4737.55C35603.1,4740.83 35600.1,4743.15 35596.8,4742.72C35593.6,4742.3 35591.2,4739.28 35591.7,4736C35591.7,4736 35597.4,4692.48 35612.8,4662.03C35620,4647.8 35629.5,4636.48 35641,4632.35Z" style="fill:rgb(62,62,62);"/>
                                </g>
                            </g>
                        </g>
                        <g transform="matrix(1,0,0,1,8.44577,1.91909)">
                            <path d="M35744.9,4477.26C35746.6,4477.26 35748.1,4478.13 35749,4479.56C35749.8,4480.98 35749.9,4482.75 35749.1,4484.22C35743.8,4494.19 35733.3,4501 35721.2,4501C35703.8,4501 35689.7,4486.89 35689.7,4469.5C35689.7,4457.42 35696.5,4446.92 35706.5,4441.64C35707.9,4440.86 35709.7,4440.9 35711.1,4441.74C35712.5,4442.59 35713.4,4444.11 35713.4,4445.76C35713.4,4445.76 35713.4,4445.76 35713.4,4445.76C35713.4,4463.15 35727.5,4477.26 35744.9,4477.26C35744.9,4477.26 35744.9,4477.26 35744.9,4477.26Z" style="fill:white;"/>
                        </g>
                        <g transform="matrix(2.37656,0,0,2.37656,-39263.3,-3832.25)">
                            <g>
                                <g transform="matrix(0.605032,0,0,0.605032,9948.62,778.932)">
                                    <path d="M35606.4,4564.27C35609.7,4563.9 35612.6,4566.28 35613,4569.57C35613.3,4572.86 35611,4575.83 35607.7,4576.19C35595.2,4577.57 35587.9,4585.43 35583.4,4596.25C35578.2,4608.61 35576.4,4624.59 35575.4,4640.55C35575.2,4643.85 35572.3,4646.37 35569,4646.16C35565.7,4645.96 35563.2,4643.11 35563.4,4639.8C35564.5,4622.42 35566.6,4605.06 35572.3,4591.6C35578.6,4576.61 35589.1,4566.17 35606.4,4564.27Z" style="fill:rgb(62,62,62);"/>
                                </g>
                                <g transform="matrix(0.304559,0,0,0.304559,20663.4,2122.02)">
                                    <circle cx="35689" cy="4700" r="139" style="fill:rgb(255,168,0);"/>
                                </g>
                                <g transform="matrix(0.985904,0,0,0.985904,31492.6,3529.89)">
                                    <path d="M50.99,30.926C51.694,26.127 48.109,23.547 43.206,21.827C43.206,21.827 44.011,18.539 44.475,16.64C44.653,15.912 44.212,15.178 43.486,14.993C43.087,14.892 42.648,14.781 42.247,14.679C41.895,14.589 41.521,14.644 41.209,14.832C40.897,15.019 40.673,15.323 40.587,15.677C40.132,17.534 39.365,20.669 39.365,20.669C38.344,20.41 37.296,20.165 36.254,19.923C36.254,19.923 37.036,16.731 37.492,14.866C37.67,14.139 37.229,13.404 36.503,13.219C36.105,13.118 35.666,13.007 35.267,12.905C34.914,12.816 34.54,12.871 34.228,13.058C33.916,13.245 33.692,13.549 33.606,13.903C33.14,15.805 32.341,19.064 32.341,19.064C31.497,18.868 30.667,18.674 29.862,18.47L29.866,18.45C29.866,18.45 27.432,17.831 25.846,17.427C25.493,17.338 25.119,17.392 24.807,17.58C24.495,17.767 24.271,18.072 24.184,18.425C24.063,18.922 23.926,19.485 23.804,19.981C23.718,20.332 23.776,20.704 23.964,21.013C24.152,21.322 24.456,21.544 24.807,21.63C25.554,21.811 26.331,22.006 26.299,22.028C27.871,22.428 28.156,23.489 28.108,24.33L23.751,42.137C23.558,42.624 23.07,43.354 21.971,43.077C21.993,43.109 21.082,42.874 20.289,42.664C19.634,42.491 18.95,42.825 18.685,43.448C18.433,44.041 18.118,44.781 17.844,45.423C17.688,45.79 17.7,46.206 17.877,46.563C18.054,46.92 18.378,47.182 18.764,47.28C20.25,47.657 22.274,48.172 22.274,48.172C23.214,48.411 24.135,48.663 25.042,48.9C25.042,48.9 24.225,52.243 23.756,54.161C23.579,54.888 24.02,55.623 24.745,55.807C25.143,55.908 25.58,56.02 25.98,56.121C26.332,56.211 26.706,56.156 27.018,55.968C27.33,55.781 27.554,55.477 27.641,55.123C28.107,53.219 28.905,49.956 28.905,49.956C29.965,50.249 30.993,50.519 32,50.774C32,50.774 31.199,54.042 30.736,55.934C30.557,56.662 30.999,57.397 31.725,57.581C32.124,57.682 32.563,57.794 32.963,57.895C33.316,57.985 33.69,57.93 34.001,57.743C34.313,57.555 34.537,57.251 34.624,56.898C35.094,54.979 35.904,51.672 35.904,51.672C42.525,52.949 47.504,52.434 49.6,46.331C51.288,41.418 49.516,38.583 46.032,36.735C48.569,36.139 50.479,34.438 50.99,30.926ZM42.118,43.603C40.918,48.516 32.799,45.86 30.167,45.194L32.299,36.484C34.932,37.153 43.372,38.479 42.118,43.603ZM43.319,30.855C42.224,35.324 35.467,33.053 33.275,32.497L35.208,24.597C37.4,25.153 44.459,26.192 43.319,30.855Z" style="fill:white;fill-rule:nonzero;"/>
                                </g>
                                <g transform="matrix(0.722625,0,0,0.722625,8740.93,929.439)">
                                    <g transform="matrix(0.203568,0.0545459,-0.0545459,0.203568,24803.8,786.722)">
                                        <path d="M34244,4636C34267.6,4636.89 34335.7,4636.71 34406,4633C34473.8,4629.43 34500.1,4617.86 34506,4603.5C34507.4,4600.02 34506.3,4634.29 34473.5,4657.35C34445.3,4677.27 34325.2,4707.66 34293.1,4636.38" style="fill:white;"/>
                                    </g>
                                    <g transform="matrix(0.413993,0.110929,-0.110929,0.413993,17856.2,-2104.51)">
                                        <circle cx="34257" cy="4572" r="8"/>
                                    </g>
                                    <g transform="matrix(0.413993,0.110929,-0.110929,0.413993,17885.5,-2099.5)">
                                        <circle cx="34257" cy="4572" r="8"/>
                                    </g>
                                </g>
                                <g transform="matrix(-0.605032,7.40951e-17,-7.40951e-17,-0.605032,53117.1,6311.41)">
                                    <path d="M35607.4,4561.14C35610.7,4560.78 35613.6,4563.16 35614,4566.45C35614.3,4569.74 35612,4572.71 35608.7,4573.07C35598.5,4574.19 35590.5,4581.51 35584.1,4591.34C35573.5,4607.76 35567.7,4631.28 35566.6,4650.35C35566.4,4653.65 35563.5,4656.17 35560.2,4655.97C35556.9,4655.76 35554.4,4652.91 35554.6,4649.6C35555.9,4628.66 35562.4,4602.87 35574,4584.83C35582.5,4571.7 35593.8,4562.64 35607.4,4561.14Z" style="fill:rgb(62,62,62);"/>
                                </g>
                                <g transform="matrix(0.147103,0.0394162,-0.0394162,0.147103,26664.8,1497.94)">
                                    <path d="M34292.7,4625.39C34292.9,4625.38 34293.1,4625.38 34293.3,4625.38C34324.3,4625.14 34364.5,4624.18 34405.4,4622.02C34444.1,4619.97 34468.7,4615.45 34483.3,4608.99C34486.6,4607.55 34498.6,4601.36 34505.9,4602.32C34513.6,4603.34 34516.7,4611.65 34515.7,4615.33C34512.5,4628.09 34503.4,4649.78 34479.9,4666.35C34461.8,4679.11 34408.4,4696.28 34361.2,4691.23C34330.1,4687.91 34301.9,4675.18 34286.4,4647.42C34267.4,4647.51 34252.4,4647.33 34243.6,4646.99C34237.5,4646.76 34232.8,4641.65 34233,4635.58C34233.2,4629.52 34238.3,4624.78 34244.4,4625.01C34254.1,4625.37 34271.1,4625.55 34292.7,4625.39ZM34313.1,4647.14C34325.7,4660.95 34344.1,4667.27 34363.5,4669.35C34404.7,4673.76 34451.4,4659.49 34467.2,4648.36C34474.2,4643.41 34479.6,4637.87 34483.6,4632.4C34467.1,4637.9 34442.4,4642.1 34406.6,4643.98C34398.4,4644.42 34390.2,4644.8 34382.2,4645.14C34357.6,4646.18 34334,4646.81 34313.1,4647.14Z"/>
                                </g>
                            </g>
                        </g>
                    </g>
                </g>
            </g>
        </g>
    </g>
</svg>
