<?xml version="1.0" encoding="utf-8"?>
<!-- Generator: Adobe Illustrator 16.0.0, SVG Export Plug-In . SVG Version: 6.00 Build 0)  -->
<!DOCTYPE svg PUBLIC "-//W3C//DTD SVG 1.1//EN" "http://www.w3.org/Graphics/SVG/1.1/DTD/svg11.dtd">
<svg version="1.1" id="design_3" xmlns="http://www.w3.org/2000/svg" xmlns:xlink="http://www.w3.org/1999/xlink" x="0px" y="0px"
	 width="467.716px" height="190.193px" viewBox="0 0 467.716 190.193" enable-background="new 0 0 467.716 190.193"
	 xml:space="preserve">
<g>
	<g>
		<path fill="#EC008C" d="M50.017,78.448H10.969L0,182.287h25.74l3.363-31.151h13.309c23.985,0,41.828-16.234,41.975-39.635
			C84.532,90.734,71.077,78.448,50.017,78.448z M42.267,127.588H31.736l2.779-25.593h10.823c7.751,0,13.162,2.779,13.017,12.287
			C58.207,125.249,50.749,127.588,42.267,127.588z"/>
		<path fill="#EC008C" d="M203.261,124.225l-2.049,21.207h21.792c-4.095,11.116-12.871,14.771-22.083,14.771
			c-15.65,0-26.473-11.114-26.473-27.495c0-17.55,12.871-31.735,30.859-31.735c10.969,0,17.988,4.974,22.815,13.162l19.599-13.017
			c-9.216-18.427-26.033-24.132-41.39-24.132c-32.321,0-58.354,25.887-58.354,58.795c0,29.833,22.23,47.97,48.994,47.97
			c29.104,0,55.283-22.085,52.796-59.526H203.261z"/>
		<path fill="#EC008C" d="M313.386,124.225l-2.049,21.207h21.793c-4.096,11.116-12.869,14.771-22.084,14.771
			c-15.649,0-26.472-11.114-26.472-27.495c0-17.55,12.871-31.735,30.859-31.735c10.968,0,17.989,4.974,22.813,13.162l19.601-13.017
			c-9.216-18.427-26.034-24.132-41.391-24.132c-32.322,0-58.355,25.887-58.355,58.795c0,29.833,22.233,47.97,48.994,47.97
			c29.104,0,55.284-22.085,52.798-59.526H313.386z"/>
		<polygon fill="#EC008C" points="407.437,119.836 389.446,78.448 361.223,78.448 392.519,143.093 387.984,182.287 413.726,182.287 
			418.26,143.093 463.157,78.448 433.322,78.448 		"/>
		<polygon fill="#EC008C" points="19.73,0.845 13.395,60.808 49.375,60.808 50.896,47.21 29.781,47.21 34.595,0.845 		"/>
		<polygon fill="#EC008C" points="57.652,60.808 72.516,60.808 78.852,0.845 63.987,0.845 		"/>
		<path fill="#EC008C" d="M112.805,61.653c16.808,0,31.926-12.753,30.49-34.374h-26.858l-1.182,12.247h12.584
			c-2.365,6.419-7.433,8.529-12.754,8.529c-9.037,0-15.287-6.417-15.287-15.879c0-10.136,7.432-18.327,17.821-18.327
			c6.334,0,10.389,2.872,13.175,7.603l11.318-7.517C136.792,3.295,127.079,0,118.211,0c-18.667,0-33.7,14.948-33.7,33.951
			C84.511,51.18,97.349,61.653,112.805,61.653z"/>
		<polygon fill="#EC008C" points="199.715,60.808 206.048,0.845 191.184,0.845 188.734,24.239 167.873,24.239 170.323,0.845 
			155.457,0.845 149.124,60.808 163.987,60.808 166.438,37.834 187.299,37.834 184.849,60.808 		"/>
		<polygon fill="#EC008C" points="212.384,14.443 225.305,14.443 220.492,60.808 235.356,60.808 240.171,14.443 253.346,14.443 
			254.866,0.845 213.82,0.845 		"/>
		<polygon fill="#EC008C" points="274.882,25.169 275.389,25.169 294.225,60.808 309.344,60.808 315.678,0.845 300.813,0.845 
			297.097,36.486 296.59,36.486 277.671,0.845 262.553,0.845 256.302,60.808 271.166,60.808 		"/>
		<polygon fill="#EC008C" points="334.005,60.808 340.339,0.845 325.476,0.845 319.141,60.808 		"/>
		<polygon fill="#EC008C" points="384.175,36.486 365.257,0.845 350.138,0.845 343.887,60.808 358.753,60.808 362.47,25.169 
			362.976,25.169 381.812,60.808 396.929,60.808 403.265,0.845 388.397,0.845 384.682,36.486 		"/>
		<path fill="#EC008C" d="M440.766,27.279l-1.185,12.247h12.584c-2.365,6.419-7.433,8.529-12.752,8.529
			c-9.038,0-15.289-6.417-15.289-15.879c0-10.136,7.433-18.327,17.823-18.327c6.334,0,10.387,2.872,13.176,7.603l11.316-7.517
			C461.119,3.295,451.406,0,442.538,0c-18.667,0-33.701,14.948-33.701,33.951c0,17.229,12.839,27.702,28.295,27.702
			c16.807,0,31.926-12.753,30.489-34.374H440.766z"/>
	</g>
	<g>
		<polygon fill="#FFDB00" points="100.869,72.858 88.083,134.914 102.32,134.914 91.088,190.193 143.175,122.871 124.154,122.871 
			146.968,72.858 		"/>
	</g>
</g>
</svg>
